<mxfile host="app.diagrams.net" modified="2021-01-25T06:30:40.751Z" agent="5.0 (Macintosh; Intel Mac OS X 10_15_7) AppleWebKit/537.36 (KHTML, like Gecko) Chrome/87.0.4280.141 Safari/537.36" etag="BLko8uRkmhKkOPQJqZfN" version="14.2.7" type="github">
  <diagram id="VjVRpiudHXe4usmQhJof" name="第 1 页">
    <mxGraphModel dx="1426" dy="844" grid="1" gridSize="10" guides="1" tooltips="1" connect="1" arrows="1" fold="1" page="1" pageScale="1" pageWidth="1169" pageHeight="827" math="0" shadow="0">
      <root>
        <mxCell id="0" />
        <mxCell id="1" parent="0" />
      </root>
    </mxGraphModel>
  </diagram>
</mxfile>
